<svg xmlns:dc="http://purl.org/dc/elements/1.1/" xmlns:cc="http://creativecommons.org/ns#" xmlns:rdf="http://www.w3.org/1999/02/22-rdf-syntax-ns#" xmlns:svg="http://www.w3.org/2000/svg" xmlns="http://www.w3.org/2000/svg" version="1.1" id="svg2" viewBox="0 0 282.17 132.82" height="132.82" width="282.17">
  <defs id="defs4"/>
  <metadata id="metadata7">
    <rdf:RDF>
      <cc:Work rdf:about="">
        <dc:format>
          image/svg+xml
        </dc:format>
        <dc:type rdf:resource="http://purl.org/dc/dcmitype/StillImage"/>
      </cc:Work>
    </rdf:RDF>
  </metadata>
  <g transform="translate(-239.3561,-299.10002)" id="layer1">
    <g transform="translate(11.188317,3.6197495)" id="g3487" fill="#000">
      <g transform="matrix(1.0207855,0,0,1.0129395,0,-10.147883)" id="text3336" style="fill:#000;font-family:sans-serif;font-size:65.53;letter-spacing:0;line-height:125;word-spacing:0">
        <path d="m235.07 362.02 0-58.9 4.07 0 0-1.4-15.61 0 0 1.4 4.24 0 0 58.9-4.24 0 0 1.4 37.34 0 1.97-20.46-2.41 0q0.09 3.63-1.09 7.78-1.01 3.67-2.84 6.34-2.27 3.37-5.73 4.94l-15.7 0z" id="path3445" style="fill:#000;font-size:89.55"/>
        <path d="m305.99 318.2 0-1.05-8.4 0 0 1.05 3.9 0 0 32.21q0 11.87-9.61 11.87-9.61 0-9.61-11.87l0-32.21 3.15 0 0-1.05-11.71 0 0 1.05 2.95 0 0 32.21q0 13.61 12.95 13.61 12.95 0 12.95-13.61l0-32.21 3.41 0z" id="path3447" style="fill:#000;font-size:67.17"/>
        <path d="m314.16 317.15-1.48 15.35 1.8 0q-0.07-2.72 0.82-5.87 0.75-2.75 2.13-4.76 1.71-2.49 4.3-3.67l10.99 0-19.35 45.23 24.7 0 1.48-15.35-1.8 0q0.07 2.72-0.82 5.84-1.74 6.3-6.43 8.46l-9.97 0 19.38-45.23-25.74 0z" id="path3449" style="fill:#000;font-size:67.17"/>
        <path d="m362.04 317.15-11.74 45.23-3.51 0 0 1.05 8.43 0 0-1.05-3.84 0 3.57-13.81 14.76 0 3.64 13.81-3.05 0 0 1.05 11.71 0 0-1.05-3.18 0-11.97-45.23-4.82 0zm0.23 3.31 7.15 27.06-14.17 0 7.02-27.06z" id="path3451" style="fill:#000;font-size:67.17"/>
        <path d="m411.43 317.15 0 1.05 3.67 0 0 33.45-17.32-34.5-9.15 0 0 1.05 3.67 0 0 44.18-3.67 0 0 1.05 8.43 0 0-1.05-3.71 0 0-41.09 20.43 42.14 2.36 0 0-45.23 3.67 0 0-1.05-8.4 0z" id="path3453" style="fill:#000;font-size:67.17"/>
        <path d="m450.79 317.15 0 1.05 3.67 0 0 33.45-17.32-34.5-9.15 0 0 1.05 3.67 0 0 44.18-3.67 0 0 1.05 8.43 0 0-1.05-3.71 0 0-41.09 20.43 42.14 2.36 0 0-45.23 3.67 0 0-1.05-8.4 0z" id="path3455" style="fill:#000;font-size:67.17"/>
        <path d="m479.97 317.15-11.74 45.23-3.51 0 0 1.05 8.43 0 0-1.05-3.84 0 3.57-13.81 14.76 0 3.64 13.81-3.05 0 0 1.05 11.71 0 0-1.05-3.18 0-11.97-45.23-4.82 0zm0.23 3.31 7.15 27.06-14.17 0 7.02-27.06z" id="path3457" style="fill:#000;font-size:67.17"/>
      </g>
      <g id="g3478" fill="#000">
        <g id="text3336-9" transform="matrix(1.022719,0,0,1.0080813,2.7525348,-14.947828)" style="fill:#000;font-family:sans-serif;font-size:49.19;letter-spacing:0;line-height:125;word-spacing:0">
          <path id="path3436" d="m299.07 380.75 0-1.05-8.4 0 0 1.05 3.91 0 0 32.23q0 11.88-9.62 11.88-9.62 0-9.62-11.88l0-32.23 3.15 0 0-1.05-11.72 0 0 1.05 2.95 0 0 32.23q0 13.62 12.97 13.62 12.97 0 12.97-13.62l0-32.23 3.41 0z" style="fill:#000;font-size:67.22"/>
          <path id="path3438" d="m330.68 403.14 0 21.83-3.28 0 0 1.05 12.05 0 0-1.05-3.28 0 0-44.21 3.28 0 0-1.05-12.05 0 0 1.05 3.28 0 0 21.37-16.15 0 0-21.37 3.28 0 0-1.05-12.05 0 0 1.05 3.28 0 0 44.21-3.28 0 0 1.05 12.05 0 0-1.05-3.28 0 0-21.83 16.15 0z" style="fill:#000;font-size:67.22"/>
          <path id="path3440" d="m360.94 379.7-11.75 45.26-3.51 0 0 1.05 8.44 0 0-1.05-3.84 0 3.58-13.82 14.77 0 3.64 13.82-3.05 0 0 1.05 11.72 0 0-1.05-3.18 0-11.98-45.26-4.83 0zm0.23 3.32 7.16 27.08-14.18 0 7.02-27.08z" style="fill:#000;font-size:67.22"/>
          <path id="path3442" d="m404.24 379.7 0 1.05 5.15 0-9.16 22.06-9.49-22.06 3.05 0 0-1.05-12.14 0 0 1.05 3.18 0 10.31 25.64 0 18.58-3.15 0 0 1.05 11.69 0 0-1.05-3.05 0 0-20.12 0.16-0.39 9.75-23.7 5.42 0 0-1.05-11.72 0z" style="fill:#000;font-size:67.22"/>
        </g>
        <g id="text3428" transform="matrix(1.0070007,0,0,0.9464353,13.088835,-4.0409185)" style="fill:#000;font-family:sans-serif;font-size:92.86;letter-spacing:0;line-height:125;word-spacing:0">
          <path id="path3433" d="m215.89 392.83-2.04 21.22 2.49 0q-0.09-3.76 1.13-8.12 1.04-3.81 2.95-6.57 2.36-3.45 5.94-5.08l15.19 0-26.75 62.53 34.14 0 2.04-21.22-2.49 0q0.09 3.76-1.13 8.07-2.4 8.71-8.89 11.7l-13.78 0 26.8-62.53-35.59 0z" style="-inkscape-font-specification:Goldoni;fill:#000;font-family:Goldoni"/>
        </g>
      </g>
    </g>
  </g>
</svg>
