<?xml version="1.0" encoding="UTF-8" standalone="no"?>
<svg
   xmlns:dc="http://purl.org/dc/elements/1.1/"
   xmlns:cc="http://creativecommons.org/ns#"
   xmlns:rdf="http://www.w3.org/1999/02/22-rdf-syntax-ns#"
   xmlns:svg="http://www.w3.org/2000/svg"
   xmlns="http://www.w3.org/2000/svg"
   version="1.1"
   id="svg2"
   viewBox="0 0 282.16983 132.81895"
   height="132.81895"
   width="282.16983">
  <defs
     id="defs4" />
  <metadata
     id="metadata7">
    <rdf:RDF>
      <cc:Work
         rdf:about="">
        <dc:format>image/svg+xml</dc:format>
        <dc:type
           rdf:resource="http://purl.org/dc/dcmitype/StillImage" />
        <dc:title></dc:title>
      </cc:Work>
    </rdf:RDF>
  </metadata>
  <g
     transform="translate(-239.3561,-299.10002)"
     id="layer1">
    <g
       style="fill:#000000"
       transform="translate(11.188317,3.6197495)"
       id="g3487">
      <g
         transform="matrix(1.0207855,0,0,1.0129395,0,-10.147883)"
         style="font-style:normal;font-weight:normal;font-size:65.53252411px;line-height:125%;font-family:sans-serif;letter-spacing:0px;word-spacing:0px;fill:#000000;fill-opacity:1;stroke:none;stroke-width:1px;stroke-linecap:butt;stroke-linejoin:miter;stroke-opacity:1"
         id="text3336">
        <path
           d="m 235.06587,362.02439 0,-58.90111 4.06667,0 0,-1.39928 -15.61077,0 0,1.39928 4.24158,0 0,58.90111 -4.24158,0 0,1.39929 37.3434,0 1.96774,-20.46453 -2.40502,0 q 0.0875,3.62939 -1.09319,7.78351 -1.00574,3.67312 -2.8423,6.34051 -2.27383,3.36703 -5.72832,4.94122 l -15.69821,0 z"
           style="font-size:89.55417633px;fill:#000000"
           id="path3445" />
        <path
           d="m 305.99208,318.19837 0,-1.04946 -8.3957,0 0,1.04946 3.90269,0 0,32.2054 q 0,11.87206 -9.60915,11.87206 -9.60915,0 -9.60915,-11.87206 l 0,-32.2054 3.14839,0 0,-1.04946 -11.70807,0 0,1.04946 2.95161,0 0,32.2054 q 0,13.61023 12.95431,13.61023 12.95432,0 12.95432,-13.61023 l 0,-32.2054 3.41075,0 z"
           style="font-size:67.16564178px;fill:#000000"
           id="path3447" />
        <path
           d="m 314.15821,317.14891 -1.47581,15.3484 1.80377,0 q -0.0656,-2.72205 0.81989,-5.87044 0.7543,-2.75484 2.13172,-4.75538 1.70538,-2.49247 4.29624,-3.67312 l 10.98657,0 -19.34948,45.22531 24.69518,0 1.47581,-15.3484 -1.80376,0 q 0.0656,2.72204 -0.8199,5.83764 -1.73817,6.29677 -6.42796,8.46129 l -9.9699,0 19.38227,-45.2253 -25.74464,0 z"
           style="font-size:67.16564178px;fill:#000000"
           id="path3449" />
        <path
           d="m 362.03997,317.14891 -11.74086,45.2253 -3.50915,0 0,1.04947 8.4285,0 0,-1.04947 -3.8371,0 3.57474,-13.807 14.75807,0 3.64033,13.807 -3.05,0 0,1.04947 11.70807,0 0,-1.04947 -3.18119,0 -11.97043,-45.2253 -4.82098,0 z m 0.22957,3.31237 7.14947,27.05647 -14.16775,0 7.01828,-27.05647 z"
           style="font-size:67.16564178px;fill:#000000"
           id="path3451" />
        <path
           d="m 411.43033,317.14891 0,1.04946 3.67312,0 0,33.45164 -17.31614,-34.5011 -9.15001,0 0,1.04946 3.67312,0 0,44.17584 -3.67312,0 0,1.04947 8.4285,0 0,-1.04947 -3.70592,0 0,-41.09304 20.43174,42.14251 2.36129,0 0,-45.22531 3.67312,0 0,-1.04946 -8.3957,0 z"
           style="font-size:67.16564178px;fill:#000000"
           id="path3453" />
        <path
           d="m 450.7852,317.14891 0,1.04946 3.67312,0 0,33.45164 -17.31614,-34.5011 -9.15001,0 0,1.04946 3.67312,0 0,44.17584 -3.67312,0 0,1.04947 8.4285,0 0,-1.04947 -3.70591,0 0,-41.09304 20.43173,42.14251 2.36129,0 0,-45.22531 3.67313,0 0,-1.04946 -8.39571,0 z"
           style="font-size:67.16564178px;fill:#000000"
           id="path3455" />
        <path
           d="m 479.97338,317.14891 -11.74086,45.2253 -3.50915,0 0,1.04947 8.4285,0 0,-1.04947 -3.8371,0 3.57474,-13.807 14.75807,0 3.64033,13.807 -3.05,0 0,1.04947 11.70807,0 0,-1.04947 -3.18118,0 -11.97044,-45.2253 -4.82098,0 z m 0.22957,3.31237 7.14947,27.05647 -14.16775,0 7.01828,-27.05647 z"
           style="font-size:67.16564178px;fill:#000000"
           id="path3457" />
      </g>
      <g
         style="fill:#000000"
         id="g3478">
        <g
           id="text3336-9"
           style="font-style:normal;font-weight:normal;font-size:49.19120407px;line-height:125%;font-family:sans-serif;letter-spacing:0px;word-spacing:0px;fill:#000000;fill-opacity:1;stroke:none;stroke-width:1px;stroke-linecap:butt;stroke-linejoin:miter;stroke-opacity:1"
           transform="matrix(1.022719,0,0,1.0080813,2.7525348,-14.947828)">
          <path
             id="path3436"
             style="font-size:67.22277069px;fill:#000000"
             d="m 299.06983,380.75286 0,-1.05035 -8.40284,0 0,1.05035 3.90601,0 0,32.2328 q 0,11.88215 -9.61732,11.88215 -9.61732,0 -9.61732,-11.88215 l 0,-32.2328 3.15106,0 0,-1.05035 -11.71803,0 0,1.05035 2.95413,0 0,32.2328 q 0,13.6218 12.96533,13.6218 12.96533,0 12.96533,-13.6218 l 0,-32.2328 3.41365,0 z" />
          <path
             id="path3438"
             style="font-size:67.22277069px;fill:#000000"
             d="m 330.67898,403.13857 0,21.82771 -3.28237,0 0,1.05035 12.04627,0 0,-1.05035 -3.28236,0 0,-44.21342 3.28236,0 0,-1.05035 -12.04627,0 0,1.05035 3.28237,0 0,21.36818 -16.14922,0 0,-21.36818 3.28236,0 0,-1.05035 -12.04627,0 0,1.05035 3.28236,0 0,44.21342 -3.28236,0 0,1.05035 12.04627,0 0,-1.05035 -3.28236,0 0,-21.82771 16.14922,0 z" />
          <path
             id="path3440"
             style="font-size:67.22277069px;fill:#000000"
             d="m 360.94235,379.70251 -11.75086,45.26377 -3.51212,0 0,1.05035 8.43567,0 0,-1.05035 -3.84037,0 3.57778,-13.81875 14.77063,0 3.64342,13.81875 -3.0526,0 0,1.05035 11.71803,0 0,-1.05035 -3.18389,0 -11.98062,-45.26377 -4.82507,0 z m 0.22976,3.31518 7.15555,27.07949 -14.1798,0 7.02425,-27.07949 z" />
          <path
             id="path3442"
             style="font-size:67.22277069px;fill:#000000"
             d="m 404.2367,379.70251 0,1.05035 5.15331,0 -9.15779,22.05747 -9.48602,-22.05747 3.05259,0 0,-1.05035 -12.14474,0 0,1.05035 3.18389,0 10.30662,25.63525 0,18.57817 -3.15107,0 0,1.05035 11.68521,0 0,-1.05035 -3.0526,0 0,-20.12088 0.16412,-0.39389 9.74862,-23.69865 5.41589,0 0,-1.05035 -11.71803,0 z" />
        </g>
        <g
           id="text3428"
           style="font-style:normal;font-weight:normal;font-size:92.86303711px;line-height:125%;font-family:sans-serif;letter-spacing:0px;word-spacing:0px;fill:#000000;fill-opacity:1;stroke:none;stroke-width:1px;stroke-linecap:butt;stroke-linejoin:miter;stroke-opacity:1"
           transform="matrix(1.0070007,0,0,0.9464353,13.088835,-4.0409185)">
          <path
             id="path3433"
             style="font-style:normal;font-variant:normal;font-weight:normal;font-stretch:normal;font-family:Goldoni;-inkscape-font-specification:Goldoni;fill:#000000"
             d="m 215.88989,392.82962 -2.04045,21.22066 2.49388,0 q -0.0907,-3.76349 1.13358,-8.11645 1.0429,-3.80884 2.94732,-6.57478 2.35785,-3.44608 5.93997,-5.07844 l 15.19,0 -26.75254,62.52838 34.14349,0 2.04045,-21.22065 -2.49388,0 q 0.0907,3.76349 -1.13358,8.0711 -2.4032,8.70591 -8.88729,11.69857 l -13.78435,0 26.79787,-62.52839 -35.59447,0 z" />
        </g>
      </g>
    </g>
  </g>
</svg>
